<svg width="485" height="66" viewBox="0 0 485 66" fill="none" xmlns="http://www.w3.org/2000/svg">
<path d="M26.8667 65.7924C10.5516 65.7924 0.97536 57.1029 0 43.6252L13.5664 43.0045C14.6304 50.4527 18.8865 54.6201 27.0441 54.6201C33.6942 54.6201 37.5957 52.1374 37.5957 47.3493C37.5957 43.0045 35.379 40.4331 23.586 37.773C7.4482 34.1376 1.24137 29.7041 1.24137 18.9752C1.24137 7.7142 10.0196 0 24.8273 0C40.4331 0 48.8567 8.8669 50.1867 21.2806L36.709 21.9899C35.9996 15.4284 31.8322 11.1723 24.65 11.1723C18.5318 11.1723 14.8077 14.0984 14.8077 18.5318C14.8077 23.2313 17.7338 25.182 27.9308 27.3101C45.3986 30.8568 51.1621 37.1523 51.1621 46.7286C51.1621 58.5216 41.7631 65.7924 26.8667 65.7924Z" fill="white"/>
<path d="M62.2014 64.3737V1.4187H75.5017V22.6993C78.0731 17.9998 82.9499 15.7831 88.6247 15.7831C99.265 15.7831 104.674 23.2313 104.674 33.7829V64.3737H91.3735V36.975C91.3735 29.9701 89.3341 26.3347 84.1913 26.3347C78.6938 26.3347 75.5017 30.1475 75.5017 37.3297V64.3737H62.2014Z" fill="white"/>
<path d="M129.38 65.4378C119.449 65.4378 112.71 60.6496 112.71 52.4921C112.71 44.1572 117.942 39.9011 128.316 37.773L143.656 34.7583C143.656 28.5514 140.818 25.448 135.587 25.448C130.533 25.448 127.784 27.8421 126.897 32.2755L113.508 31.6549C115.282 21.1919 123.173 15.7831 135.587 15.7831C149.774 15.7831 156.956 22.6993 156.956 35.645V51.8714C156.956 54.5315 157.843 55.2408 159.616 55.2408H160.946V64.3737C160.148 64.6397 158.02 64.9058 156.247 64.9058C151.281 64.9058 146.936 63.1324 145.784 57.1029C143.39 62.157 137.537 65.4378 129.38 65.4378ZM132.572 56.3049C139.222 56.3049 143.656 52.2261 143.656 45.3986V43.0932L132.838 45.3986C128.493 46.2853 126.365 48.1473 126.365 51.2507C126.365 54.4428 128.493 56.3049 132.572 56.3049Z" fill="white"/>
<path d="M183.999 65.4378C171.94 65.4378 164.492 55.8615 164.492 40.6104C164.492 25.448 172.117 15.7831 183.999 15.7831C190.738 15.7831 195.792 18.7092 198.274 23.586V1.4187H211.575V64.3737H198.895L198.629 57.3689C195.969 62.5117 190.56 65.4378 183.999 65.4378ZM188.343 55.2408C194.728 55.2408 198.274 50.1867 198.274 40.6104C198.274 30.9455 194.728 25.98 188.343 25.98C182.137 25.98 178.147 31.5662 178.147 40.6104C178.147 49.4773 182.225 55.2408 188.343 55.2408Z" fill="white"/>
<path d="M243.764 65.4378C229.222 65.4378 219.823 55.5955 219.823 40.6104C219.823 25.6254 229.222 15.7831 243.675 15.7831C257.773 15.7831 266.995 25.5367 266.995 41.4971V44.1572H233.567C233.921 51.6941 237.912 55.3295 244.03 55.3295C248.463 55.3295 251.655 53.4674 252.897 49.566L266.286 50.364C263.714 59.8516 255.202 65.4378 243.764 65.4378ZM233.567 35.9996H253.34C252.985 29.0835 249.173 25.6254 243.675 25.6254C238.089 25.6254 234.276 29.4381 233.567 35.9996Z" fill="white"/>
<path d="M275.215 64.3737V16.8471H287.806L288.161 26.3347C290.023 19.6845 293.658 16.8471 299.422 16.8471H303.766V27.8421H299.422C291.973 27.8421 288.515 30.5908 288.515 37.6844V64.3737H275.215Z" fill="white"/>
<path d="M333.767 64.3737V1.4187H347.245V53.0241H376.24V64.3737H333.767Z" fill="white"/>
<path d="M399.37 65.4378C389.439 65.4378 382.701 60.6496 382.701 52.4921C382.701 44.1572 387.932 39.9011 398.306 37.773L413.646 34.7583C413.646 28.5514 410.809 25.448 405.577 25.448C400.523 25.448 397.774 27.8421 396.888 32.2755L383.499 31.6549C385.272 21.1919 393.163 15.7831 405.577 15.7831C419.764 15.7831 426.946 22.6993 426.946 35.645V51.8714C426.946 54.5315 427.833 55.2408 429.606 55.2408H430.937V64.3737C430.139 64.6397 428.01 64.9058 426.237 64.9058C421.272 64.9058 416.927 63.1324 415.774 57.1029C413.38 62.157 407.528 65.4378 399.37 65.4378ZM402.562 56.3049C409.213 56.3049 413.646 52.2261 413.646 45.3986V43.0932L402.828 45.3986C398.484 46.2853 396.356 48.1473 396.356 51.2507C396.356 54.4428 398.484 56.3049 402.562 56.3049Z" fill="white"/>
<path d="M464.537 65.4378C457.886 65.4378 452.832 62.5117 450.172 57.3689L449.906 64.3737H437.226V1.4187H450.527V23.586C453.01 19.1525 458.064 15.7831 464.537 15.7831C476.596 15.7831 484.31 25.5367 484.31 40.6104C484.31 55.6842 476.596 65.4378 464.537 65.4378ZM460.812 55.2408C466.753 55.2408 470.655 49.832 470.655 40.6104C470.655 31.3888 466.842 25.98 460.901 25.98C454.34 25.98 450.527 31.3888 450.527 40.6104C450.527 49.7433 454.34 55.2408 460.812 55.2408Z" fill="white"/>
</svg>
