<svg width="238" height="36" viewBox="0 0 238 36" fill="none" xmlns="http://www.w3.org/2000/svg">
<path fill-rule="evenodd" clip-rule="evenodd" d="M6.96046e-07 17.7234C9.67413 17.7234 17.5166 9.78837 17.5166 0H6.96046e-07V17.7234Z" fill="white"/>
<path d="M35.0331 0H17.5166L17.5166 17.7234L35.0331 0Z" fill="white"/>
<path fill-rule="evenodd" clip-rule="evenodd" d="M35.0331 17.7234C25.359 17.7234 17.5166 25.6584 17.5166 35.4468H35.0331V17.7234Z" fill="white"/>
<path d="M0 35.4468H17.5166V17.7234L0 35.4468Z" fill="white"/>
<path d="M75.7286 34.4622H52.0017V29.0309L68.2857 6.48445H52.3626V1.09885H75.4579V6.30189L59.0386 29.0766H75.7286V34.4622Z" fill="white"/>
<path d="M90.3943 35.0555C83.7634 35.0555 79.1173 30.172 79.1173 23.1889C79.1173 16.1146 83.6732 11.2311 90.2139 11.2311C96.8898 11.2311 101.13 15.7495 101.13 22.7782V24.4669L84.3498 24.5125C84.7558 28.4833 86.8308 30.4914 90.4845 30.4914C93.5067 30.4914 95.4915 29.3048 96.123 27.1597H101.22C100.273 32.0889 96.2132 35.0555 90.3943 35.0555ZM90.259 15.7951C87.0112 15.7951 85.0264 17.5751 84.4852 20.9525H95.6719C95.6719 17.849 93.5518 15.7951 90.259 15.7951Z" fill="white"/>
<path d="M109.188 7.39726C107.294 7.39726 105.805 5.89112 105.805 4.01985C105.805 2.14859 107.294 0.688086 109.188 0.688086C110.992 0.688086 112.481 2.14859 112.481 4.01985C112.481 5.89112 110.992 7.39726 109.188 7.39726ZM106.437 34.4622V11.9157H111.94V34.4622H106.437Z" fill="white"/>
<path d="M126.106 34.4622H120.603V16.571H116.317V11.9157H120.603V4.88703H126.106V11.9157H130.436V16.571H126.106V34.4622Z" fill="white"/>
<path d="M139.676 34.4622L132.459 11.9157H138.188L141.12 21.5915C141.616 23.3715 142.067 25.334 142.473 27.4335C142.879 25.2428 143.285 23.8279 144.007 21.5915L147.074 11.9157H152.667L155.644 21.5915C155.915 22.5043 156.817 25.8817 157.088 27.3879C157.449 25.6992 158.17 23.0064 158.576 21.5915L161.554 11.9157H167.373L159.659 34.4622H154.517L151.449 24.6951C150.547 21.7284 150.051 19.5833 149.871 18.4423C149.645 19.492 149.239 21.0895 148.111 24.7864L145.044 34.4622H139.676Z" fill="white"/>
<path d="M169.198 23.1433C169.198 16.1146 174.205 11.2767 181.106 11.2767C188.008 11.2767 193.015 16.1146 193.015 23.1433C193.015 30.172 188.008 35.0099 181.106 35.0099C174.205 35.0099 169.198 30.172 169.198 23.1433ZM174.701 23.1433C174.701 27.251 177.317 30.035 181.106 30.035C184.895 30.035 187.511 27.251 187.511 23.1433C187.511 19.0356 184.895 16.2516 181.106 16.2516C177.317 16.2516 174.701 19.0356 174.701 23.1433Z" fill="white"/>
<path d="M212.262 11.8244V16.9818H210.233C206.263 16.9818 203.782 19.1269 203.782 23.5084V34.4622H198.279V11.9613H203.466L203.782 15.2475C204.729 13.0111 206.849 11.5049 209.827 11.5049C210.593 11.5049 211.36 11.5962 212.262 11.8244Z" fill="white"/>
<path d="M222.438 34.4622H216.98V0.505523H222.438V21.3633L231.098 11.9157H238L229.52 20.8613L237.82 34.4622H231.504L225.686 24.9689L222.438 28.392V34.4622Z" fill="white"/>
</svg>
